<svg width="100" height="100" viewBox="0 0 100 100" fill="none" xmlns="http://www.w3.org/2000/svg">
<path fill-rule="evenodd" clip-rule="evenodd" d="M50 100C77.6142 100 100 77.6142 100 50C100 22.3858 77.6142 0 50 0C22.3858 0 0 22.3858 0 50C0 77.6142 22.3858 100 50 100ZM68.8607 62V46.5239C68.8607 38.2341 64.4341 34.3762 58.5277 34.3762C53.7617 34.3762 51.6325 36.9994 50.4401 38.836V35.0105H41.4662C41.5869 37.544 41.4662 62 41.4662 62H50.4416V46.9274C50.4416 46.1204 50.5027 45.3171 50.7395 44.7401C51.3889 43.1261 52.8642 41.4577 55.3433 41.4577C58.5903 41.4577 59.8883 43.9331 59.8883 47.5602V62H68.8607ZM50.4401 38.836V38.9235H50.3812C50.3902 38.9091 50.4007 38.894 50.4113 38.8787C50.4212 38.8643 50.4313 38.8499 50.4401 38.836ZM27 26.6627C27 24.0138 29.0078 22 32.0783 22C35.1495 22 37.0366 24.0138 37.0954 26.6627C37.0954 29.2535 35.1495 31.3284 32.0194 31.3284H31.9598C28.9504 31.3284 27 29.2535 27 26.6627ZM36.5048 62H27.5332V35.0105H36.5048V62Z" fill="black"/>
</svg>
