<svg width="100" height="100" viewBox="0 0 100 100" fill="none" xmlns="http://www.w3.org/2000/svg">
<path fill-rule="evenodd" clip-rule="evenodd" d="M50 100C77.6142 100 100 77.6142 100 50C100 22.3858 77.6142 0 50 0C22.3858 0 0 22.3858 0 50C0 77.6142 22.3858 100 50 100ZM69.0033 36.9737C69.9582 37.48 70.7788 38.1006 71.4387 38.8522C73.6158 41.333 74.0417 44.8657 73.2186 49.0968C71.2475 59.2218 64.4999 62.7222 55.8833 62.7222H54.5521C53.4993 62.7222 52.6028 63.4895 52.4387 64.5282L52.3305 65.1157L50.6536 75.7409L50.5672 76.1939C50.4031 77.2336 49.5066 78 48.4539 78H39.5588C38.7706 78 38.1683 77.2938 38.2913 76.5152L39.0202 71.8957H28.4666C27.5658 71.8957 26.8771 71.0909 27.0185 70.1996L34.1354 25.0645C34.3248 23.8764 35.3479 23 36.5516 23H53.6451C59.5347 23 64.1367 24.2448 66.6848 27.1472C68.9989 29.7835 69.6745 32.6938 69.0033 36.9737ZM69.0033 36.9737C68.4341 36.6708 67.8152 36.4115 67.15 36.1898C66.9842 36.1348 66.8157 36.0833 66.6438 36.0327C66.2998 35.9323 65.9454 35.8406 65.5805 35.7603C65.2157 35.6783 64.8394 35.6067 64.4519 35.5447C63.0988 35.3265 61.6192 35.2235 60.0323 35.2235H46.6321C46.303 35.2235 45.9896 35.2986 45.7085 35.4321C45.0905 35.7289 44.6314 36.3146 44.5179 37.0296L39.3292 69.9351L41.5884 55.6149C41.7752 54.4268 42.7912 53.5504 43.995 53.5504H49.0108C58.8617 53.5504 66.5748 49.5481 68.8278 37.9749C68.895 37.6319 68.9509 37.3002 69.0033 36.9737Z" fill="black"/>
</svg>
