<svg width="100" height="100" viewBox="0 0 100 100" fill="none" xmlns="http://www.w3.org/2000/svg">
<path fill-rule="evenodd" clip-rule="evenodd" d="M50 100C77.6142 100 100 77.6142 100 50C100 22.3858 77.6142 0 50 0C22.3858 0 0 22.3858 0 50C0 77.6142 22.3858 100 50 100ZM33.8189 43.1992C42.2811 40.6309 56.9027 41.1149 65.7671 46.3793H65.7668C66.9862 47.1051 68.5661 46.7019 69.2912 45.4796C70.0155 44.2595 69.6151 42.681 68.3925 41.9552C58.1876 35.8975 42.0397 35.3281 32.3254 38.2767C30.9656 38.6897 30.1994 40.1258 30.6112 41.4855C31.0228 42.8446 32.4596 43.6115 33.8189 43.1992ZM62.5274 54.8824C63.5352 55.502 64.8548 55.1856 65.4767 54.1763C66.0964 53.1694 65.7791 51.8493 64.7713 51.2287C56.2833 46.0123 43.8667 44.5444 33.879 47.5755C33.3353 47.7412 32.8795 48.1156 32.6114 48.6168C32.3434 49.118 32.2851 49.7051 32.4492 50.2492C32.7936 51.3811 33.9913 52.02 35.1249 51.6777C43.8681 49.0237 55.1375 50.3398 62.5274 54.8824ZM61.6587 62.157C61.8406 62.0242 61.9945 61.8568 62.1117 61.6644H62.1119C62.2294 61.4723 62.3078 61.2589 62.3428 61.0365C62.3777 60.8141 62.3686 60.5869 62.3157 60.368C62.2629 60.1492 62.1675 59.9429 62.0349 59.7609C61.9023 59.5789 61.7351 59.4248 61.543 59.3074C54.2945 54.8782 45.3089 53.8477 34.8336 56.2421C34.614 56.292 34.4065 56.3847 34.2228 56.515C34.0392 56.6452 33.883 56.8104 33.7633 57.001C33.6436 57.1917 33.5627 57.4041 33.5252 57.6261C33.4877 57.8481 33.4943 58.0753 33.5447 58.2947C33.5948 58.514 33.6876 58.7214 33.8178 58.9049C33.9481 59.0883 34.1132 59.2444 34.3037 59.364C34.4942 59.4837 34.7065 59.5646 34.9283 59.6023C35.1502 59.6399 35.3772 59.6334 35.5966 59.5833C45.169 57.3967 53.2973 58.288 59.7549 62.2348C59.9471 62.3523 60.1605 62.4308 60.383 62.4658C60.6055 62.5007 60.8327 62.4914 61.0516 62.4385C61.2705 62.3855 61.4768 62.2898 61.6587 62.157ZM22 49.4995C22 34.3119 34.3124 22 49.4995 22H49.4998C64.6881 22 77 34.3122 77 49.4995C77 64.6886 64.6878 77 49.4998 77C34.3124 77 22 64.6886 22 49.4995Z" fill="#191414"/>
</svg>
